<?xml version="1.0" standalone="no"?>
<!DOCTYPE svg PUBLIC "-//W3C//DTD SVG 20010904//EN"
 "http://www.w3.org/TR/2001/REC-SVG-20010904/DTD/svg10.dtd">
<svg version="1.0" xmlns="http://www.w3.org/2000/svg"
 width="1084.000000pt" height="1084.000000pt" viewBox="0 0 1084.000000 1084.000000"
 preserveAspectRatio="xMidYMid meet">
<metadata>
Created by potrace 1.14, written by Peter Selinger 2001-2017
</metadata>
<g transform="translate(0.000000,1084.000000) scale(0.100000,-0.100000)"
fill="#000000" stroke="none">
<path d="M5129 10836 c-2 -2 -52 -7 -110 -10 -58 -4 -117 -8 -130 -11 -13 -2
-55 -6 -92 -10 -37 -3 -76 -8 -85 -10 -23 -4 -89 -14 -137 -21 -47 -6 -80 -12
-115 -19 -67 -13 -138 -27 -165 -31 -81 -14 -408 -102 -550 -149 -149 -49
-348 -123 -440 -164 -155 -69 -206 -93 -330 -157 -151 -77 -219 -114 -277
-151 -21 -12 -40 -23 -43 -23 -12 0 -355 -231 -460 -310 -344 -258 -685 -585
-950 -910 -386 -473 -689 -1005 -898 -1575 -30 -82 -59 -166 -65 -185 -103
-346 -142 -510 -186 -770 -4 -19 -8 -46 -11 -60 -3 -14 -7 -47 -11 -75 -3 -27
-7 -57 -9 -65 -2 -8 -6 -46 -10 -85 -4 -38 -9 -81 -11 -95 -26 -218 -26 -816
1 -1065 11 -93 27 -230 30 -247 2 -9 7 -38 11 -65 3 -26 8 -57 10 -68 3 -11 7
-36 10 -55 3 -19 10 -54 15 -78 5 -23 12 -59 15 -79 3 -20 10 -47 15 -60 5
-13 6 -23 4 -23 -2 0 0 -11 5 -25 5 -14 12 -36 14 -48 18 -97 95 -357 162
-544 141 -396 330 -778 562 -1133 67 -103 217 -317 232 -330 3 -3 18 -23 35
-45 134 -181 422 -491 650 -699 87 -80 344 -286 467 -375 435 -312 946 -572
1443 -734 138 -45 326 -101 375 -111 14 -3 45 -10 70 -17 25 -6 54 -13 65 -15
11 -2 30 -6 43 -8 13 -3 31 -7 40 -10 9 -3 35 -7 56 -11 21 -3 48 -7 60 -10
30 -7 75 -15 116 -21 19 -2 46 -7 60 -9 14 -3 45 -7 70 -10 25 -3 56 -8 70
-11 14 -2 57 -7 95 -10 39 -3 86 -7 105 -9 211 -23 757 -23 930 -1 14 2 61 7
105 10 44 4 91 9 105 11 14 3 43 7 65 10 22 2 49 7 60 9 11 2 42 7 68 10 26 4
71 11 100 17 29 6 65 13 81 16 16 2 59 11 95 19 36 8 77 17 91 20 98 19 442
121 565 166 103 38 252 96 290 113 17 7 55 24 85 36 108 46 389 189 511 260
219 126 598 387 700 480 14 13 41 36 60 50 137 106 497 456 624 610 11 13 52
62 91 109 39 47 92 114 119 150 27 36 53 67 57 68 4 2 8 8 8 14 0 5 6 16 13
23 25 29 35 43 105 147 75 111 202 315 202 322 0 3 12 22 26 43 46 68 251 494
317 658 104 259 245 722 271 890 4 22 13 67 20 100 8 33 17 82 21 109 3 27 8
52 9 55 2 3 7 31 10 62 4 31 8 65 10 75 2 11 7 51 11 89 4 39 9 79 11 89 2 10
6 62 10 115 3 53 7 112 10 131 5 44 5 569 0 630 -2 25 -7 83 -10 130 -4 47
-11 121 -17 165 -5 44 -11 97 -14 117 -4 38 -41 261 -50 308 -21 108 -31 154
-66 295 -22 88 -44 171 -49 185 -5 14 -23 72 -41 130 -96 318 -297 773 -463
1053 -25 43 -46 81 -46 83 0 3 -8 17 -19 32 -10 15 -58 88 -106 162 -74 113
-231 333 -269 377 -6 7 -16 18 -21 25 -122 157 -208 252 -415 458 -180 180
-235 232 -330 310 -30 25 -57 47 -60 50 -3 3 -54 44 -115 91 -346 269 -747
508 -1130 674 -60 26 -123 53 -140 60 -134 59 -593 210 -696 230 -8 2 -44 10
-80 18 -35 9 -80 19 -99 23 -19 4 -39 9 -45 10 -5 2 -48 10 -95 18 -47 9 -96
18 -110 21 -13 2 -42 7 -65 10 -22 3 -51 8 -65 10 -46 8 -139 19 -250 30 -36
4 -83 9 -105 11 -46 6 -701 14 -706 10z"/>
</g>
</svg>
